<svg width="656" height="385">
    <defs>
        <linearGradient x1="50%" y1="100%" x2="50%" y2="0%" id="prefix__a">
            <stop stop-color="gray" stop-opacity="0.25" offset="0%"></stop>
            <stop stop-color="gray" stop-opacity="0.12" offset="53.514%"></stop>
            <stop stop-color="gray" stop-opacity="0.1" offset="100%"></stop>
        </linearGradient>
    </defs>
    <g fill-rule="nonzero" fill="none">
        <path
            d="M101 122v19.161c17.433 0 31.565 13.583 31.565 30.339S118.433 201.839 101 201.839V221h103v-99H101z"
            fill="#F2F2F2"></path>
        <ellipse fill="#F2F2F2" cx="100.5" cy="171" rx="24.5" ry="24"></ellipse>
        <path fill="#F2F2F2"
            d="M478 195.053L438 171v186h40zM376 357h40V157.172L376 133zM354 120.597L153 0v108.815h64.43v125.433H153V357h201zM499 208v150h21.021L577 254.74z">
        </path>
        <path
            d="M577.835 286.085C544.42 310.303 535 352.85 535 352.85s44.752 3.282 78.166-20.936C646.579 307.697 656 265.15 656 265.15s-44.752-3.282-78.165 20.936z"
            fill="#3F3D56"></path>
        <path
            d="M533.845 353s-.492-.265-1.382-.794c-.71-.422-1.683-1.01-2.86-1.762-10.527-6.707-37.794-26.433-48.978-56.87-13.993-38.108 2.53-78.574 2.53-78.574s36.043 19.593 51.354 54.787a81.233 81.233 0 0 1 1.866 4.639c12.176 33.157 1.248 68.1-1.795 76.617-.458 1.275-.735 1.957-.735 1.957z"
            fill="#EC7064"></path>
        <path
            d="M534.575 352l-.508-.36c-.364-.254-36.425-26.031-45.69-65.102-9.267-39.07 11.54-77.614 11.751-77.998l.297-.54.508.36c.364.254 36.425 26.031 45.69 65.102 9.267 39.07-11.54 77.614-11.751 77.998l-.297.54zm-33.771-142.401c-2.501 4.854-19.927 40.571-11.359 76.7 8.568 36.128 40.317 60.804 44.751 64.102 2.501-4.854 19.927-40.571 11.359-76.7-8.568-36.128-40.317-60.804-44.751-64.102z"
            fill="#3F3D56"></path>
        <path
            d="M536.323 350.797c-.845.463-1.583.852-2.19 1.17a68.3 68.3 0 0 1-2.076 1.033s-.35-.992-.883-2.806c-2.934-9.928-11.334-44.528 2.724-76.307A87.838 87.838 0 0 1 536.25 269a80.503 80.503 0 0 1 1.93 4.67c12.597 33.378 1.291 68.553-1.857 77.127z"
            fill="#000" opacity="0.1"></path>
        <path
            d="M592.356 297.47c-16.09 37.279-56.491 56.53-56.491 56.53s-14.312-41.19 1.779-78.47c16.09-37.279 56.491-56.53 56.491-56.53s14.312 41.19-1.779 78.47z"
            fill="#FE5043"></path>
        <path fill="#3F3D56" d="M535.114 352.595l57.347-132.863 1.017.414-57.347 132.864z"></path>
        <path
            d="M650 364.5c0 5.118-29.737 9.8-78.9 13.393a1839.81 1839.81 0 0 1-28.68 1.846c-8.782.5-17.984.969-27.605 1.409-9.325.419-19.006.808-29.043 1.168-31.706 1.141-66.751 1.962-103.984 2.372-9.034.098-18.19.175-27.47.232-9.661.053-19.434.08-29.318.08-179.494 0-325-9.175-325-20.5S145.506 344 325 344c77.273 0 148.241 1.703 204.017 4.539 2.053.107 4.086.21 6.097.312.012.007.026.01.04.009C605.412 352.623 650 358.23 650 364.5z"
            fill="#3F3D56"></path>
        <path
            d="M650 364.5c0 5.118-29.737 9.8-78.9 13.393a1839.81 1839.81 0 0 1-28.68 1.846c-8.782.5-17.984.969-27.605 1.409-9.325.419-19.006.808-29.043 1.168-31.706 1.141-66.751 1.962-103.984 2.372-9.034.098-18.19.175-27.47.232-9.661.053-19.434.08-29.318.08-179.494 0-325-9.175-325-20.5S145.506 344 325 344c77.273 0 148.241 1.703 204.017 4.539 2.053.107 4.086.21 6.097.312.012.007.026.01.04.009C605.412 352.623 650 358.23 650 364.5z"
            fill="#000" opacity="0.15"></path>
        <path
            d="M626 360.5c0 4.12-27.723 7.887-73.56 10.78-8.33.522-17.267 1.016-26.734 1.484-8.187.4-16.766.777-25.736 1.132-8.695.342-17.72.656-27.078.941-29.561.921-62.237 1.579-96.949 1.91-8.418.08-16.955.14-25.609.185-9.01.047-18.12.07-27.331.068C155.658 377 20 369.613 20 360.5S155.658 344 323.003 344c37.003 0 72.455.363 105.235 1.026h.083c31.002.626 59.614 1.52 84.887 2.63 1.915.085 3.81.167 5.686.248.01.008.024.012.038.01 11.576.537 22.407 1.116 32.388 1.737.11.005.221.016.331.02 46.311 2.9 74.349 6.683 74.349 10.829z"
            fill="#3F3D56"></path>
        <path
            d="M549 350.646c-4.102 25.532-29.965 16.975-61.26 16.975-33.062 0-60.056 9.55-61.74-21.621 31.003.629 59.615 1.527 84.887 2.643l5.686.248c.011.008.025.012.039.01 11.576.54 22.407 1.121 32.388 1.745z"
            fill="#000" opacity="0.1"></path>
        <path
            d="M175 342.96c0 9.665-5.82 13.04-13 13.04a23.201 23.201 0 0 1-1.486-.05c-6.48-.453-11.514-4.001-11.514-12.99 0-9.3 12.04-21.038 12.946-21.908l.001-.001L162 321s13 12.296 13 21.96z"
            fill="#EC7064"></path>
        <path
            d="M162.274 354.527l4.799-6.559-4.812 7.28-.012.752a21.212 21.212 0 0 1-.997-.045l.517-9.67-.004-.076.009-.013.05-.914-4.824-7.298 4.838 6.612.012.194.39-7.307-4.129-7.54 4.18 6.259.406-15.15.002-.052v.05l-.068 11.947 4.11-4.736-4.127 5.765-.109 6.542 3.84-6.279-3.855 7.242-.06 3.637 5.57-8.74-5.592 10.009-.134 8.09zM428 335.384C428 299.826 455.534 271 489.5 271s61.5 28.826 61.5 64.384c0 35.559-27.534 25.217-61.5 25.217S428 370.943 428 335.384zM83 294h1v72h-1z"
            fill="#3F3D56"></path>
        <ellipse fill="#3F3D56" cx="84.5" cy="293" rx="10.5" ry="10"></ellipse>
        <path d="M83 338s-1.488-31.35-32-27.705" fill="#3F3D56"></path>
        <path
            d="M392.087 306.247c.276.924.584 1.842.913 2.753-1.477-1.374-2.925-2.786-4.402-4.152.592.175 1.183.35 1.741.557.61.229 1.194.51 1.748.842zm-7.152-4.59c-8.703-7.164-18.786-12.711-27.704-19.657 4.87 2.268 9.607 4.912 14.306 7.447a448.823 448.823 0 0 0 16.92 8.669 13.391 13.391 0 0 1-3.522 3.541zm3.722-18.04l.417-.405c.004 1.018.012 1.97.025 2.834-.78-.245-1.557-.496-2.333-.754.667-.52 1.299-1.08 1.891-1.675zM312 303.013a67.867 67.867 0 0 0 9.286-12.543c3.455 5.715 9.07 9.836 13.845 14.622-7.694-.961-15.4-1.755-23.131-2.08z"
            fill="url(#prefix__a)"></path>
        <path
            d="M65 356.96c0 9.665-5.82 13.04-13 13.04a23.201 23.201 0 0 1-1.486-.05C44.034 369.496 39 365.948 39 356.96c0-9.3 12.04-21.038 12.946-21.908l.001-.001L52 335s13 12.296 13 21.96z"
            fill="#EC7064"></path>
        <path
            d="M50.274 368.527l4.799-6.559-4.812 7.28-.012.752a21.212 21.212 0 0 1-.997-.045l.517-9.67-.004-.076.009-.013.05-.914L45 351.984l4.838 6.612.012.194.39-7.307-4.129-7.54 4.18 6.259.406-15.15.002-.052v.05l-.068 11.947 4.11-4.736-4.127 5.765-.109 6.542 3.84-6.279-3.855 7.242-.06 3.637 5.57-8.74-5.592 10.009-.134 8.09z"
            fill="#3F3D56"></path>
        <ellipse fill="#FE5043" cx="70.5" cy="277" rx="5.5" ry="5"></ellipse>
        <path
            d="M425.729 201.496s19.832-4.444 22.018 13.263c2.187 17.708-10.532 21.05-10.532 21.05L429.16 238 398 229.7l4.373-12.727 23.356-15.477z"
            fill="#2F2E41"></path>
        <ellipse fill="#2F2E41" cx="418" cy="176" rx="27" ry="26"></ellipse>
        <path fill="#2F2E41" d="M325 230l5.227 1.074L348 257.926 340.16 259z"></path>
        <path
            d="M191 339.474A113.378 113.378 0 0 0 196.3 354a124.475 124.475 0 0 0 17.693-5.292c.178-.068-3.309-4.855-3.675-5.247-1.382-1.475-3.17-3.2-4.997-4.034-1.842-.84-4.11-.199-6.082-.093-2.743.147-5.49.193-8.239.14z"
            fill="#FBBEBE"></path>
        <path
            d="M205.125 347.082c-3.07-.938-4.934-3.955-6.183-6.865-1.248-2.91-2.255-6.082-4.623-8.217-.907.042-1.638.763-2.087 1.538-.449.776-.716 1.65-1.235 2.382-.987 1.394-2.723 2.068-3.964 3.25-1.302 1.24-2.013 2.992-3.36 4.183-1.693 1.496-4.085 1.868-6.305 2.363a41.042 41.042 0 0 0-9.867 3.573 16.765 16.765 0 0 1-3.655 1.6 14.047 14.047 0 0 1-4.274.14l-9.817-.684a7.848 7.848 0 0 0-2.62.112c-2.018.554-3.271 2.754-3.123 4.807.148 2.053 1.455 3.893 3.106 5.16a20.867 20.867 0 0 0 5.591 2.767 168.7 168.7 0 0 0 26.32 7.345l.006 1.898a46.345 46.345 0 0 0 20.036 4.557 3.182 3.182 0 0 0 1.5-.253c.689-.366 1.008-1.152 1.263-1.88a74.536 74.536 0 0 0 4.094-20.847c.174-1.8.031-3.617-.423-5.37-.534-1.726 1.307-1-.397-1.677"
            fill="#2F2E41"></path>
        <path
            d="M395.385 311.56c-29.28 1.702-58.221-6.62-87.54-7.51-3.644-.11-7.33-.102-10.888.675-3.765.82-7.275 2.475-10.776 4.056-15.724 7.103-31.991 12.987-48.239 18.862l-18.663 6.75c-3.73 1.348-7.595 2.718-11.565 2.482-1.78-.105-3.964-.367-4.965 1.073-3.036 4.368-1.602 10.784.404 15.686.652 1.59 1.753 3.307 3.498 3.488 1.229.128 2.371-.563 3.565-.873 3.397-.884 6.784 1.335 10.28 1.696 4.32.447 8.33-1.942 12.408-3.405 6.761-2.427 14.155-2.35 21.262-3.5 11.917-1.927 22.962-7.3 33.287-13.42 3.932-2.331 7.91-4.828 12.427-5.68 5.193-.98 10.527.318 15.618 1.717a368.205 368.205 0 0 1 35.808 11.838c6.168 2.397 12.291 4.967 18.709 6.624a69.554 69.554 0 0 0 41.93-2.373c4.686-1.799 9.779-4.978 10.048-9.887.153-2.8-2.083-5.265-3.577-7.659-.958-1.535-1.917-3.07-2.96-4.552-5.05-7.167-11.177-16.606-20.071-16.089z"
            fill="#2F2E41"></path>
        <path
            d="M395.385 311.56c-29.28 1.702-58.221-6.62-87.54-7.51-3.644-.11-7.33-.102-10.888.675-3.765.82-7.275 2.475-10.776 4.056-15.724 7.103-31.991 12.987-48.239 18.862l-18.663 6.75c-3.73 1.348-7.595 2.718-11.565 2.482-1.78-.105-3.964-.367-4.965 1.073-3.036 4.368-1.602 10.784.404 15.686.652 1.59 1.753 3.307 3.498 3.488 1.229.128 2.371-.563 3.565-.873 3.397-.884 6.784 1.335 10.28 1.696 4.32.447 8.33-1.942 12.408-3.405 6.761-2.427 14.155-2.35 21.262-3.5 11.917-1.927 22.962-7.3 33.287-13.42 3.932-2.331 7.91-4.828 12.427-5.68 5.193-.98 10.527.318 15.618 1.717a368.205 368.205 0 0 1 35.808 11.838c6.168 2.397 12.291 4.967 18.709 6.624a69.554 69.554 0 0 0 41.93-2.373c4.686-1.799 9.779-4.978 10.048-9.887.153-2.8-2.083-5.265-3.577-7.659-.958-1.535-1.917-3.07-2.96-4.552-5.05-7.167-11.177-16.606-20.071-16.089z"
            fill="#000" opacity="0.1"></path>
        <path
            d="M247 340.813A260.711 260.711 0 0 0 260.544 345c2.55-4.16 7.318-7.055 8.405-11.81.068-.207.068-.43.001-.637a1.077 1.077 0 0 0-.513-.456 25.334 25.334 0 0 0-10.605-3.089c-2.94-.185-4.28 2.865-5.613 5.009-.539.868-4.021 7.202-5.219 6.796z"
            fill="#FBBEBE"></path>
        <path
            d="M253.022 338.893c-2.692-.56-5.326-1.992-6.7-4.364-.644-1.111-1.329-2.61-2.614-2.526-1.193.078-1.741 1.488-2.01 2.649-1.006 4.346-1.994 8.727-3.759 12.825-1.765 4.1-4.376 7.948-8.058 10.485-1.689 1.164-3.572 2.033-5.223 3.25-1.483 1.093-2.776 2.463-4.415 3.309a25.053 25.053 0 0 1-3.386 1.25 23.026 23.026 0 0 0-4.849 2.338 9.716 9.716 0 0 0-3.301 3.125 4.546 4.546 0 0 0-.272 4.374 4.78 4.78 0 0 0 3.231 2.193c1.327.226 2.68.26 4.017.1 5.31-.388 10.612-.856 15.914-1.325a46.04 46.04 0 0 0 6.67-.918c1.161-.278 2.3-.646 3.456-.941a28.76 28.76 0 0 1 6.063-.875 5.126 5.126 0 0 1 1.769.16c1.228.398 2.1 1.608 3.368 1.854a5.393 5.393 0 0 0 2.398-.317c3.82-1.035 7.834-1.007 11.787-1.219 1.742-.093 3.781-.42 4.58-1.965.997-1.926-.656-4.08-1.314-6.145a18.644 18.644 0 0 1-.547-4.03 24.506 24.506 0 0 0-2.923-9.58c-1.352-2.458-3.197-5.176-2.247-7.814.322-.895.963-1.728.9-2.677-.28-4.168-10.094-2.71-12.535-3.216z"
            fill="#2F2E41"></path>
        <path
            d="M352.154 264.328c-5.273-2.246-9.497-6.3-11.855-11.381-.497-1.092-.905-2.232-1.384-3.334a25.379 25.379 0 0 0-7.085-9.51c-.775-.635-1.684-1.241-2.63-1.075-.908.16-1.623 1.028-1.935 2.002a7.903 7.903 0 0 0-.196 3.073c.265 2.42.696 4.821 1.29 7.187l1.441 6.35c.179.976.48 1.928.898 2.834a10.07 10.07 0 0 0 2.42 2.799 122.918 122.918 0 0 0 4.015 3.424 11.405 11.405 0 0 0 6.963 2.992c5.909 1.059 11.918 2.584 16.904 6.311-.055-.041-.021-4.26-.107-4.743-.229-1.277-.406-2.543-1.267-3.407-1.933-1.94-5.118-2.51-7.472-3.522z"
            fill="#9D5F68"></path>
        <path
            d="M352.154 264.328c-5.273-2.246-9.497-6.3-11.855-11.381-.497-1.092-.905-2.232-1.384-3.334a25.379 25.379 0 0 0-7.085-9.51c-.775-.635-1.684-1.241-2.63-1.075-.908.16-1.623 1.028-1.935 2.002a7.903 7.903 0 0 0-.196 3.073c.265 2.42.696 4.821 1.29 7.187l1.441 6.35c.179.976.48 1.928.898 2.834a10.07 10.07 0 0 0 2.42 2.799 122.918 122.918 0 0 0 4.015 3.424 11.405 11.405 0 0 0 6.963 2.992c5.909 1.059 11.918 2.584 16.904 6.311-.055-.041-.021-4.26-.107-4.743-.229-1.277-.406-2.543-1.267-3.407-1.933-1.94-5.118-2.51-7.472-3.522z"
            fill="#000" opacity="0.1"></path>
        <circle fill="#2F2E41" cx="411" cy="210" r="7"></circle>
        <path
            d="M406.9 206.147c-1.957-.21-4.132-.366-5.7.793a7.554 7.554 0 0 0-1.952 2.57c-1.508 2.74-2.995 5.533-3.754 8.552-.644 2.561-.75 5.24-1.548 7.76-1.479 4.675-5.268 8.622-5.701 13.495-.194 2.181.183 4.734-1.461 6.229a9.67 9.67 0 0 1-1.296.89 9.641 9.641 0 0 0-2.84 2.824c-.615.947-1.089 2.034-2.015 2.698-1.467 1.052-3.902.945-4.625 2.573-.743 1.672 1.142 3.533.706 5.305-.356 1.443-2.018 2.104-3.163 3.084-1.467 1.257-2.137 3.152-2.749 4.957-4.882.895-9.925-.322-13.802-3.33 2.014 4.799 2.057 10.095 2.144 15.278.029 1.68-.025 3.568-1.266 4.739 5.742.119 11.343 1.624 16.947 2.85 2.449.535 5.108 1 7.391-.013a12.003 12.003 0 0 0 3.386-2.606c3.048-2.992 6.246-6.255 6.992-10.405.418-2.325.013-4.711.124-7.07.137-2.92 1.06-5.744 1.85-8.566a98.137 98.137 0 0 0 3.24-17.64c.331-3.679 3.615-6.64 5.343-9.927 3.263-6.206 6.597-12.67 6.843-19.638.083-2.33-.712-5.146-3.094-5.402z"
            fill="#2F2E41"></path>
        <path
            d="M406.9 206.147c-1.957-.21-4.132-.366-5.7.793a7.554 7.554 0 0 0-1.952 2.57c-1.508 2.74-2.995 5.533-3.754 8.552-.644 2.561-.75 5.24-1.548 7.76-1.479 4.675-5.268 8.622-5.701 13.495-.194 2.181.183 4.734-1.461 6.229a9.67 9.67 0 0 1-1.296.89 9.641 9.641 0 0 0-2.84 2.824c-.615.947-1.089 2.034-2.015 2.698-1.467 1.052-3.902.945-4.625 2.573-.743 1.672 1.142 3.533.706 5.305-.356 1.443-2.018 2.104-3.163 3.084-1.467 1.257-2.137 3.152-2.749 4.957-4.882.895-9.925-.322-13.802-3.33 2.014 4.799 2.057 10.095 2.144 15.278.029 1.68-.025 3.568-1.266 4.739 5.742.119 11.343 1.624 16.947 2.85 2.449.535 5.108 1 7.391-.013a12.003 12.003 0 0 0 3.386-2.606c3.048-2.992 6.246-6.255 6.992-10.405.418-2.325.013-4.711.124-7.07.137-2.92 1.06-5.744 1.85-8.566a98.137 98.137 0 0 0 3.24-17.64c.331-3.679 3.615-6.64 5.343-9.927 3.263-6.206 6.597-12.67 6.843-19.638.083-2.33-.712-5.146-3.094-5.402z"
            fill="#000" opacity="0.1"></path>
        <path
            d="M400.39 315.983c-6.1-2.84-10.563-8.135-15.496-12.666-9.416-8.65-20.931-14.775-30.832-22.885-6.563-5.376-12.432-11.636-19.643-16.137a49.606 49.606 0 0 0-21.039-7.212 6.052 6.052 0 0 0-2.576.126 6.08 6.08 0 0 0-2.395 1.853 73.379 73.379 0 0 0-8.48 11.408c-12.549 20.842-30.373 38.366-45.142 57.75a2.55 2.55 0 0 0-.176 3.5l3.004 5.758c1.681 3.223 4.374 6.977 7.998 6.337 1.656-.293 2.976-1.485 4.195-2.626l13.486-12.612 14.14-13.223c8.284-7.748 16.71-15.676 22.111-25.587 4.22 7.162 11.71 11.85 16.847 18.406 1.955 2.494 3.55 5.236 5.296 7.876 2.796 4.232 5.976 8.204 9.152 12.17l16.219 20.253c2.211 2.762 4.485 5.58 7.51 7.453 3.84 2.38 8.512 3.006 13.034 3.402 6.093.534 12.21.75 18.326.649 4.663-.078 9.473-.378 13.657-2.404 4.184-2.026 7.622-6.185 7.404-10.768-.113-2.384-1.172-4.619-2.338-6.711-5.793-10.4-13.364-19.038-24.261-24.11z"
            fill="#2F2E41"></path>
        <ellipse fill="#2F2E41" cx="415.5" cy="214" rx="5.5" ry="5"></ellipse>
        <path
            d="M414.445 210.23c1.325 2.357 1.326 5.292.597 7.903-.73 2.61-2.121 4.972-3.498 7.3-1.355 2.29-2.726 4.6-4.544 6.533 8.388.405 16.52-2.911 23.923-6.93 5.956-3.233 11.899-7.224 15.077-13.266-1.859.563-3.907.007-5.553-1.034a20.728 20.728 0 0 1-4.254-3.995l-4.212-4.775a19.04 19.04 0 0 1-2.59-3.427A9.698 9.698 0 0 1 428.28 193a31.472 31.472 0 0 1-5.572 4.661c-3.008 1.973-6.324 3.405-9.338 5.366-1.07.696-3.446 1.815-2.834 3.223.596 1.373 3.063 2.47 3.91 3.98z"
            fill="#9D5F68"></path>
        <path
            d="M414.445 210.23c1.325 2.357 1.326 5.292.597 7.903-.73 2.61-2.121 4.972-3.498 7.3-1.355 2.29-2.726 4.6-4.544 6.533 8.388.405 16.52-2.911 23.923-6.93 5.956-3.233 11.899-7.224 15.077-13.266-1.859.563-3.907.007-5.553-1.034a20.728 20.728 0 0 1-4.254-3.995l-4.212-4.775a19.04 19.04 0 0 1-2.59-3.427A9.698 9.698 0 0 1 428.28 193a31.472 31.472 0 0 1-5.572 4.661c-3.008 1.973-6.324 3.405-9.338 5.366-1.07.696-3.446 1.815-2.834 3.223.596 1.373 3.063 2.47 3.91 3.98z"
            fill="#000" opacity="0.1"></path>
        <path
            d="M414.614 211.963c-1.6 2.603-1.944 5.676 0 8.048.242.295 1.14 2.127 1.529 2.144.375-.03.724-.2.972-.476 2.068-1.828 3.584-4.16 5.401-6.226 1.818-2.065 4.11-3.948 6.873-4.364 3.334-.502 6.554 1.207 9.471 2.855 1.213.685 2.47 1.41 3.234 2.554a8.16 8.16 0 0 1 1.062 3.49c1.008 7.343.986 14.778.962 22.186-.018 5.354-.039 10.747-1.086 16.004-.541 2.717-1.355 5.384-1.74 8.126a52.762 52.762 0 0 0-.342 7.291l-.008 10.195c-.07 1.872.067 3.746.409 5.59.5 2.234 1.594 4.296 2.324 6.47a41.433 41.433 0 0 1 1.54 7.645l1.444 10.557c.454 3.324.79 6.961-1.29 9.637-.94 1.21-2.174 2.179-3.127 3.38-3.57 4.493-2.424 10.906-3.913 16.396-1.175 4.02-3.59 7.6-6.922 10.26-2.55 2.095-5.844 3.744-9.127 3.154-4.433-.796-7.096-5.265-8.304-9.488-1.209-4.222-1.65-8.818-4.268-12.386-2.138-2.913-5.45-4.745-8.446-6.824-2.995-2.08-5.922-4.76-6.574-8.282-.285-1.538-.108-3.123-.277-4.677-.485-4.011-3.192-7.448-7.062-8.967-2.269-.853-5.071-1.158-6.349-3.171 3.3-1.798 5.49-5.12 6.643-8.622 1.154-3.502 1.39-7.218 1.616-10.889l.758-12.267c.339-5.482.492-10.915 2.99-15.842 1.115-2.202 2.504-4.263 3.666-6.443a71.109 71.109 0 0 0 3.928-9.455c1.81-5.026 3.62-10.054 5.233-15.143.77-2.425 1.508-4.897 2.878-7.056 1.37-2.16 3.336-4.938 5.902-5.404z"
            fill="#FE5043"></path>
        <path
            d="M387.349 291.881l3.304.119.704-4.974c.093-.996.328-1.972.7-2.9a17.91 17.91 0 0 1 1.9-2.774c3.253-4.576 3.016-10.653 3.822-16.213 1.075-7.415 4.185-14.357 7.262-21.187l6.416-14.242a15.383 15.383 0 0 0 1.774-7.861c.057-2.202.712-10.213.769-12.414.02-.815-1.804-.362-2.174-1.088-.804-1.582-1.905 2.706-3.408 3.647-1.503.941-2.332 2.645-2.97 4.301-1.383 3.588-2.228 7.36-3.516 10.983-1.289 3.623-3.091 7.182-5.99 9.704-1.317 1.147-2.835 2.056-4.08 3.28-3.99 3.932-4.38 10.14-4.52 15.744-.084 3.332-.73 35.875.007 35.875z"
            fill="#2F2E41"></path>
        <path
            d="M434.32 206.375c-3.226 1.238-4.995 4.653-5.902 7.934-.906 3.281-1.276 6.778-3.008 9.722-4.05 6.882-14.378 8.887-17.236 16.323-.935 2.433-.894 5.102-1.146 7.69-.518 5.329-2.313 10.476-2.844 15.803-.41 4.127-.056 8.286.3 12.418l3.608 42.022c.522 6.07.508 12.59-1.08 18.478 3.654.696 7.453-.235 10.844-1.744 3.39-1.509 6.484-3.58 9.748-5.338 5.611-3.021 11.8-5.163 16.713-9.188a9.567 9.567 0 0 0 2.252-2.43c.985-1.66 1.066-3.67 1.534-5.537a29.895 29.895 0 0 1 1.618-4.352 127.629 127.629 0 0 0 4.695-12.956 70.174 70.174 0 0 0 2.16-8.897c.393-2.396.606-4.816.818-7.233a42.37 42.37 0 0 1 2.292-11.107 87.122 87.122 0 0 0 5.271-26.618 13.139 13.139 0 0 0-.271-3.918c-.428-1.595-1.392-2.99-2.184-4.445-1.5-2.758-2.4-5.793-3.816-8.593-3.199-6.329-8.848-11.127-14.765-15.148-2.907-1.975-6.31-4.15-9.601-2.886z"
            fill="#2F2E41"></path>
        <path
            d="M359.294 273.155c-2.5-1.429-5-2.967-6.88-5.13-.902-1.037-1.646-2.2-2.563-3.224-2.229-2.49-5.388-4.033-8.654-4.84-3.265-.807-6.662-.93-10.028-.958-2.252-.018-4.56.013-6.668.795-2.109.781-4.01 2.466-4.418 4.651-.49 2.63 1.26 5.193 3.363 6.88a16.328 16.328 0 0 0 6.722 3.203c2.01.345 4.038.579 6.076.699 11.961 1.229 22.633 7.619 33.115 13.437A440.758 440.758 0 0 0 397.514 303c.38-2.811.537-5.647.472-8.482-.05-2.117-.155-5.345-2.193-6.588-2.374-1.448-6.283-1.78-8.962-2.642a145.409 145.409 0 0 1-18.017-7.153 144.441 144.441 0 0 1-9.52-4.98z"
            fill="#9D5F68"></path>
        <circle fill="#9D5F68" cx="411" cy="187" r="21"></circle>
        <path
            d="M441.057 229.663c-1.923 2.17-2.886 4.966-4.178 7.54-2.659 5.3-6.829 9.847-8.917 15.383-2.203 5.84-2.13 12.786-6.448 17.372-.75.798-1.657 1.568-1.874 2.628-.129.63.005 1.304-.22 1.908-.618 1.666-3.437 1.75-3.963 3.447-.154.496-.067 1.046-.258 1.53-.432 1.097-1.929 1.264-2.93 1.922-2.09 1.372-1.668 4.562-3.16 6.54-1.18 1.564-3.404 2.089-5.38 1.823-1.975-.265-3.785-1.18-5.584-2.018a5.203 5.203 0 0 0-2.009-.61 4.308 4.308 0 0 0-2.319.766c-3.977 2.448-5.844 7.295-5.817 11.875.028 4.58 1.654 8.991 3.319 13.274.227.723.6 1.395 1.097 1.978 1.319 1.35 3.615 1.131 5.367.38 1.75-.75 3.342-1.931 5.225-2.261 3.332-.585 6.588 1.631 9.968 1.449 2.476-.134 4.668-1.527 6.725-2.875 3.284-2.152 6.628-4.357 9.043-7.41 1.478-1.87 2.561-4.001 3.85-6a69.528 69.528 0 0 1 5.438-7.028l12.415-14.708a23.514 23.514 0 0 0 5.947-11.181c1.18-3.92 2.369-7.885 2.573-11.965.168-3.358-.335-6.711-.902-10.028-.557-3.265-1.191-6.566-2.673-9.545-2.697-5.422-9.264-9.908-14.335-4.186z"
            fill="#2F2E41"></path>
        <ellipse fill="#2F2E41" cx="447" cy="141" rx="27" ry="26"></ellipse>
        <path
            d="M471.856 164.464a27.003 27.003 0 0 1-24.604 3.711c-8.315-2.84-14.745-9.552-17.252-18.009 1.275 10.183 8.14 18.781 17.758 22.24a27.014 27.014 0 0 0 27.773-5.865c7.418-7.057 10.256-17.705 7.342-27.541 1.236 9.873-2.988 19.637-11.017 25.464z"
            fill="#2F2E41"></path>
        <ellipse fill="#2F2E41" cx="425" cy="180.5" rx="20" ry="19.5"></ellipse>
        <ellipse fill="#2F2E41" cx="408.5" cy="173.5" rx="17.5" ry="13.5"></ellipse>
        <ellipse fill="#9C6067" transform="rotate(-39.118 413.388 194.377)" cx="413.388"
            cy="194.377" rx="2.728" ry="4.068"></ellipse>
        <path
            d="M394 364.96c0 9.665-5.82 13.04-13 13.04a23.201 23.201 0 0 1-1.486-.05c-6.48-.453-11.514-4.001-11.514-12.99 0-9.3 12.04-21.038 12.946-21.908l.001-.001L381 343s13 12.296 13 21.96z"
            fill="#EC7064"></path>
    </g>
</svg>