<svg width="575" height="403">
    <g fill-rule="nonzero" fill="none">
        <path
            d="M26.454 381.871C33.943 395.954 49.837 402 49.837 402s3.752-16.788-3.737-30.871C38.612 357.046 22.717 351 22.717 351s-3.752 16.788 3.737 30.871z"
            fill="#2F2E41"></path>
        <path
            d="M31.035 377.598c13.531 7.998 18.742 23.882 18.742 23.882S33.05 404.4 19.52 396.402C5.99 388.404.777 372.52.777 372.52s16.727-2.92 30.258 5.078z"
            fill="#EC7064"></path>
        <path fill="#3F3D56" d="M16.777 402h558v1h-558z"></path>
        <path fill="#EC7064" d="M455.503 38.515V84.75h-9.263V38.515zM417.423.5v46.235h-9.263V.5z">
        </path>
        <path fill="#3F3D56"
            d="M349.496 86.805v22.604h-9.263V86.805zM349.496 166.945v22.604h-9.263v-22.604zM349.496 209.07v22.604h-9.263V209.07zM280.54 189.549v22.604h-9.263v-22.604zM280.54 272.771v22.604h-9.263v-22.604zM349.496 251.195v22.604h-9.263v-22.604zM349.496 294.348v22.604h-9.263v-22.604zM398.898 337.5V60.091h40.138v.608H399.52V337.5z">
        </path>
        <path fill="#3F3D56"
            d="M327.883 316.951V138.177h71.015v.605h-70.4v178.17zM398.897 98.107v1.027h-40.139v-1.027z">
        </path>
        <path fill="#3F3D56"
            d="M398.897 177.22v1.027h-40.139v-1.027zM398.897 221.399v1.027h-40.139v-1.027zM398.897 262.497v1.027h-40.139v-1.027zM398.897 304.622v1.027h-40.139v-1.027zM329.941 199.823v1.027h-40.139v-1.027zM329.941 284.073v1.027h-40.139v-1.027z">
        </path>
        <path fill="#EC7064" d="M377.284 38.515V84.75h-9.263V38.515z"></path>
        <path fill="#3F3D56"
            d="M484.321 86.805v22.604h-9.263V86.805zM484.321 166.945v22.604h-9.263v-22.604zM484.321 209.07v22.604h-9.263V209.07zM553.277 189.549v22.604h-9.263v-22.604zM553.277 272.771v22.604h-9.263v-22.604zM484.321 251.195v22.604h-9.263v-22.604zM484.321 294.348v22.604h-9.263v-22.604zM427.715 337.5V60.091h-40.139v.608h39.517V337.5z">
        </path>
        <path fill="#3F3D56"
            d="M496.671 316.951V138.177h-71.014v.605h70.4v178.17zM463.737 98.107v1.027h-40.139v-1.027z">
        </path>
        <path fill="#3F3D56"
            d="M463.737 177.22v1.027h-40.139v-1.027zM463.737 221.399v1.027h-40.139v-1.027zM463.737 262.497v1.027h-40.139v-1.027zM463.737 304.622v1.027h-40.139v-1.027zM534.751 199.823v1.027h-40.139v-1.027zM534.751 284.073v1.027h-40.139v-1.027z">
        </path>
        <path
            d="M184.538 25.073c-7.356-12.446-21.909-13.026-21.909-13.026s-14.18-1.816-23.278 17.14c-8.479 17.667-20.181 34.726-1.884 38.861l3.305-10.3 2.047 11.067c2.605.188 5.219.233 7.829.134 19.595-.633 38.256.186 37.656-6.855-.8-9.36 3.312-25.046-3.766-37.021z"
            fill="#2F2E41"></path>
        <path
            d="M157.634 67.638c.035 1.39.024 2.854-.663 4.06-1.363 2.391-4.69 2.749-6.692 4.633-2.105 1.982-2.343 5.198-2.443 8.094-.105 3.027-.194 6.153.906 8.973a21.836 21.836 0 0 0 2.539 4.379 501.578 501.578 0 0 0 3.7 5.281c.664.987 1.405 1.92 2.215 2.792 2.228 2.28 5.286 3.541 8.338 4.441 1.972.582 4.102 1.035 6.059.403a11.591 11.591 0 0 0 3.523-2.175 18.914 18.914 0 0 0 3.988-3.881c1.643-2.393 2.098-5.39 2.439-8.276a179.304 179.304 0 0 0 1.172-25.727 6.328 6.328 0 0 0-.49-2.733c-1.013-1.987-3.727-2.411-5.157-4.12-1.223-1.462-1.273-3.547-1.262-5.455l.026-4.86c.043-.409-.04-.821-.235-1.183a1.994 1.994 0 0 0-1.388-.65 46.608 46.608 0 0 0-9.104-.612c-2.47.076-7.21-.131-9.347 1.25-1.94 1.254.489 4.718.938 6.663.604 2.862.918 5.778.938 8.703z"
            fill="#9D5F68"></path>
        <path
            d="M118.296 392.373c-.612 2.107-.896 4.563.375 6.343a6.333 6.333 0 0 0 2.678 1.986c2.652 1.168 5.62 1.399 8.51 1.263a3.991 3.991 0 0 0 3.01-1.17c6.715-5.628 11.257-13.471 12.828-22.152a2.124 2.124 0 0 0-.068-1.36 2.135 2.135 0 0 0-.894-.767 19.975 19.975 0 0 0-4.79-2.215c-9.227-2.41-19.363 10.199-21.65 18.072zM216.482 362.95a13.83 13.83 0 0 0 4.568 3.46 6.445 6.445 0 0 0 5.583-.094c2.585-1.464 3.318-4.865 3.111-7.817-.381-5.458-3.003-10.378-6.016-14.837-.954-1.41-3.064-5.61-4.916-5.662-.88-.025-4.17 3.148-5.065 3.752-3.266 2.206-5.529 3.784-4.849 8.02.758 4.723 4.388 9.777 7.584 13.178z"
            fill="#2F2E41"></path>
        <circle fill="#9D5F68" cx="162.777" cy="40" r="20"></circle>
        <path
            d="M155.955 87.713a29.791 29.791 0 0 1-3.052-6.1 10.18 10.18 0 0 1-.053-6.737c-2.114-1.263-4.984-.24-6.524 1.714s-2.01 4.574-2.147 7.086c-.135 2.512.009 5.062-.522 7.518-1.176 5.434-5.536 9.901-5.86 15.458-.32 5.467 3.323 10.23 5.114 15.386a26.357 26.357 0 0 1 1.335 10.015c-.058 1.097-.125 2.346.627 3.126.39.351.854.608 1.354.75 8.645 3.132 17.983 3.403 27.144 3.641l15.132.395a4.702 4.702 0 0 0 2.672-.46c1.358-.857 1.54-2.778 1.563-4.417.198-14.117-.385-28.232-.968-42.338-.212-5.113-.427-10.255-1.48-15.256-.268-1.274-.708-2.69-1.85-3.252-.966-.476-2.113-.168-3.118.215-4.69 1.795-8.744 5.007-11.63 9.215-3.105 4.55-4.632 10.006-7.67 14.59-2.206 3.326-3.481.427-4.95-2.023l-5.117-8.526z"
            fill="#FE5043"></path>
        <path
            d="M150.098 69.198c-1.19.575-2.532.825-3.663 1.502-1.355.811-2.276 2.152-3.154 3.45l-4.736 7.008a21.62 21.62 0 0 0-2.715 4.875c-.74 2.126-.79 4.414-.859 6.659a289.287 289.287 0 0 1-1.183 18.706 66.181 66.181 0 0 1-1.316 8.928c-.564 2.387-1.362 4.713-2.159 7.036l-8.775 25.586a9.529 9.529 0 0 0-.756 4.03c.145 1.369 1.067 2.761 2.445 3.005a4.864 4.864 0 0 0 2.635-.524c3.35-1.376 6.675-3.005 9.255-5.517 4.24-4.13 5.945-10.085 7.488-15.755.818-3.008 1.643-6.058 1.64-9.172-.008-7.069-4.252-13.616-4.365-20.684.02-1.92.196-3.836.526-5.73.756-5.147 1.541-10.334 3.354-15.22 1.813-4.885 4.749-9.509 9.066-12.512 2.07-1.44 7.627-4.323 5.457-7.633-2.163-3.3-6.07.94-8.185 1.962z"
            fill="#575A88"></path>
        <path
            d="M188.057 133.742a1652.24 1652.24 0 0 0-42.63-2.72c-1.195-.06-2.555-.058-3.375.805a4.11 4.11 0 0 0-.773 1.44l-3.038 8.112c-1.346 3.593-1.96 6.986-4.646 9.744-2.687 2.76-5.884 4.997-8.537 7.788a28.612 28.612 0 0 0-7.475 15.101c-.74 4.644-.319 9.457-1.53 14.002-1.495 5.603.902 11.436.865 17.23-.056 8.63-1.252 17.207-2.445 25.756-3.46 24.784-6.92 49.568-10.68 74.31-3.085 20.313-6.124 42.24 3.512 60.432 2.303 4.348 5.44 8.477 9.845 10.732a30.076 30.076 0 0 0 7.68 2.387 178.208 178.208 0 0 0 20.67 3.031c2.818.246 6.1.242 7.907-1.912 1.212-1.445 1.382-3.458 1.498-5.333l.76-12.243c.982-15.842.621-32.267-2.949-47.74-1.204-5.218-2.718-10.366-3.725-15.624a82.942 82.942 0 0 1-1.48-15.148 47.821 47.821 0 0 1 1.009-10.853c2.612-11.506 11.265-21.881 10.007-33.608 7.973 11.578 10.616 24.833 13.111 38.627 1.82 10.062 3.789 20.145 7.235 29.78 3.746 10.476 9.308 20.877 8.516 31.961a41.43 41.43 0 0 1-1.158 6.848c-2.265 9.304 7.308 17.26 16.135 13.36l.18-.082c8.159-3.72 12.28-13.517 20.6-16.864 3.863-1.554 8.677-1.773 10.242-6.47a8.167 8.167 0 0 0 .343-3.362c-.366-3.799-2.553-6.872-4.255-10.137-3.712-7.123-5.12-15.169-6.454-23.074a3863.91 3863.91 0 0 1-3.907-23.575c-.835-5.14-1.668-10.311-3.374-15.235-.748-2.156-1.66-4.259-2.259-6.46-2.237-8.22.077-16.98-.858-25.444-1.052-9.521-2.984-18.976-5.1-28.322-2.739-12.106-3.298-24.58-3.739-36.979-.174-4.925-.357-9.97-2.231-14.536-2.645-6.439-7.862-11.58-13.497-15.725zM181.075 24.452L166.338 17l-20.35 3.048L141.778 38l10.48-.39 2.929-6.595v6.487l4.835-.18 2.808-10.5L164.584 38l17.193-.339z"
            fill="#2F2E41"></path>
        <path
            d="M173.801 77.756a8.005 8.005 0 0 1 4.2-2.085 2.166 2.166 0 0 0 1.482-.597c.196-.332.284-.717.252-1.1a53.577 53.577 0 0 0-.861-10.374 10.42 10.42 0 0 1 4.223-.574l13.275.037c2.67.008 5.433.035 7.862 1.143a12.51 12.51 0 0 1 5.68 5.818 33.594 33.594 0 0 1 2.567 7.856c1.578 6.816-4.086 13.676-4.592 20.654-.146 2.012.023 4.04-.162 6.049-.195 2.116-.78 4.19-.828 6.315-.06 2.626.705 5.199 1.587 7.673 2.694 7.56 6.53 14.657 9.643 22.055a18.42 18.42 0 0 1 1.588 5.334 6.892 6.892 0 0 1-1.464 5.23c-1.298 1.456-3.274 2.051-5.097 2.747a33.357 33.357 0 0 0-6.519 3.35 13.711 13.711 0 0 1-2.656 1.54c-.922.29-1.867.499-2.825.626-2.459.468-4.782 1.46-7.158 2.248-.784.26-1.688.487-2.396.063a2.888 2.888 0 0 1-.926-1.102c-4.555-7.892-6.163-17.115-7.208-26.168-1.044-9.053-1.62-18.253-4.39-26.935-.842-2.64-1.887-5.23-2.365-7.96-.692-3.946-.174-8.03-.886-11.972-.632-3.495-2.267-6.328-2.026-9.87z"
            fill="#575A88"></path>
        <path
            d="M204.546 153.464c-3.897 1.78-6.98 4.61-9.588 7.898-.552.696.188 1.994 1.843 1.973 1.54-.02 2.46-1.905 4-1.925.47 3.93 1.323 7.81 2.545 11.59 3.072-2.576 4.912-6.203 6.672-9.726l3.479-6.966c1.277-2.558 2.555-5.116 3.706-7.727.313-.61.506-1.27.57-1.948.152-4.494-4.487-4.52-6.488-1.709-2.189 3.076-2.87 6.773-6.739 8.54z"
            fill="#9D5F68"></path>
        <path
            d="M205.064 72c2.858 3.104 5.736 6.234 7.955 9.864 2.219 3.63 3.76 7.84 3.657 12.146-.11 1.09-.072 2.191.113 3.27a9.461 9.461 0 0 0 1.424 2.754A53.485 53.485 0 0 1 224.662 114c.24.98.594 1.924 1.055 2.813.422.722.998 1.331 1.463 2.024a8.053 8.053 0 0 1 .127 8.503 2.9 2.9 0 0 0-.503 1.037c-.192 1.186 1.233 1.9 1.757 2.972.531 1.086.023 2.474-.858 3.275a7.797 7.797 0 0 1-3.17 1.48c1.474 2.206-.315 5.306-.915 7.922-.42 1.83-.414 3.736-.69 5.597-.274 1.86-.892 3.773-2.263 4.994-.175.175-.39.3-.624.365-.76.155-1.278-.765-1.544-1.525-.83-2.368-1.666-4.782-3.128-6.789-1.461-2.006-3.677-3.577-6.09-3.57a3.53 3.53 0 0 1 .237-3.098c.483-.953 1.192-1.76 1.725-2.684a12.725 12.725 0 0 0 1.358-4.054c1.191-6.542-.008-13.313-3.361-18.975a18.058 18.058 0 0 0-2.805-3.664c-1.178-1.154-2.556-2.081-3.644-3.328a13.33 13.33 0 0 1-2.9-7.353c-.2-2.69-.132-5.393.205-8.067a359.022 359.022 0 0 1 1.843-15.9c.056-.687.226-1.359.504-1.985.569-1.11 1.532-1.455 2.623-1.991z"
            fill="#575A88"></path>
    </g>
</svg>