<svg width="694" height="543">
    <defs>
        <filter x="-3.4%" y="-17.8%" width="106.8%" height="135.6%" filterUnits="objectBoundingBox"
            id="prefix__a">
            <feOffset dy="1" in="SourceAlpha" result="shadowOffsetOuter1"></feOffset>
            <feGaussianBlur stdDeviation="1.5" in="shadowOffsetOuter1" result="shadowBlurOuter1">
            </feGaussianBlur>
            <feColorMatrix values="0 0 0 0 0 0 0 0 0 0 0 0 0 0 0 0 0 0 0.5 0" in="shadowBlurOuter1"
                result="shadowMatrixOuter1"></feColorMatrix>
            <feMerge>
                <feMergeNode in="shadowMatrixOuter1"></feMergeNode>
                <feMergeNode in="SourceGraphic"></feMergeNode>
            </feMerge>
        </filter>
        <filter x="-3.4%" y="-17.8%" width="106.8%" height="135.6%" filterUnits="objectBoundingBox"
            id="prefix__b">
            <feOffset dy="1" in="SourceAlpha" result="shadowOffsetOuter1"></feOffset>
            <feGaussianBlur stdDeviation="1.5" in="shadowOffsetOuter1" result="shadowBlurOuter1">
            </feGaussianBlur>
            <feColorMatrix values="0 0 0 0 0 0 0 0 0 0 0 0 0 0 0 0 0 0 0.5 0" in="shadowBlurOuter1"
                result="shadowMatrixOuter1"></feColorMatrix>
            <feMerge>
                <feMergeNode in="shadowMatrixOuter1"></feMergeNode>
                <feMergeNode in="SourceGraphic"></feMergeNode>
            </feMerge>
        </filter>
    </defs>
    <g transform="translate(2 2)" fill="none" fill-rule="evenodd">
        <path
            d="M40.123 470.815c7.028 26.51 31.104 42.927 31.104 42.927s12.68-26.562 5.65-53.072c-7.028-26.51-31.104-42.928-31.104-42.928s-12.68 26.563-5.65 53.073z"
            fill="#3F3D56" fill-rule="nonzero"></path>
        <path
            d="M50 464.698c19.605 19.33 22 49.044 22 49.044s-29.393-1.625-49-20.955c-19.605-19.33-22-49.045-22-49.045s29.393 1.626 49 20.956z"
            fill="#FE5043" fill-rule="nonzero"></path>
        <path fill="#2F2E41" fill-rule="nonzero" d="M0 537.742h692v3H0z"></path>
        <path
            d="M82 538.742H54v-28h28v28zm-25.846-2.153h23.692v-23.693H56.154v23.693zM1 44.742h235v236H1z"
            fill="#3F3D56" fill-rule="nonzero"></path>
        <path
            d="M236 102.421v5.321a24.094 24.094 0 0 1-8.305-9.37c-3.1-6.313-3.003-13.59-2.904-20.628.112-8.366.224-16.256-5.107-21.396-5.864-5.642-15.25-4.846-24.327-4.078-1.066.084-2.132.182-3.185.265-9.105.685-19.248-1.606-24.172-7.793h6.145c4.503 3.017 11.392 4.078 17.719 3.604 1.024-.07 2.076-.168 3.128-.252 9.554-.81 20.385-1.732 27.61 5.237 6.65 6.397 6.524 15.586 6.397 24.469-.098 6.55-.182 13.31 2.484 18.728A19.163 19.163 0 0 0 236 102.42zM237 141.372v6.37a27.025 27.025 0 0 0-3.463-3.756c-7.323-6.5-17.839-7.928-28-9.327-1.32-.172-2.611-.358-3.903-.543-16.476-2.386-26.694-8.085-31.221-17.384-3.137-6.456-3.037-13.898-2.938-21.097.113-8.556.227-16.626-5.166-21.882-5.932-5.771-15.426-4.957-24.608-4.171-1.079.086-2.157.185-3.222.271-11.836.9-25.417-3.228-27.276-14.383-.639-3.829.312-7.342 1.717-10.728h4.655c-1.561 3.4-2.725 6.685-2.171 10.013 1.405 8.513 12.786 11.57 22.763 10.813 1.036-.071 2.1-.171 3.165-.257 9.664-.828 20.62-1.771 27.929 5.356 6.727 6.542 6.6 15.941 6.471 25.026-.099 6.699-.184 13.612 2.512 19.154 3.86 7.942 13.014 12.855 28 15.026 1.278.186 2.57.372 3.86.543 10.786 1.472 21.955 3 30.257 10.356.213.186.426.386.639.6zM237 256.742c-5.144-5.464-9.448-12.962-12.74-22.34a335.289 335.289 0 0 1-2.037-6.061c-3.691-11.141-7.51-22.653-16.602-30.01-9.718-7.854-23.64-9.59-37.106-11.269a565.996 565.996 0 0 1-5.159-.654c-21.831-2.889-35.354-9.761-41.353-21.002-4.161-7.812-4.033-16.805-3.905-25.499.157-10.33.314-20.092-6.84-26.438-7.852-6.972-20.434-5.99-32.59-5.037-1.439.114-2.864.228-4.26.327-15.69 1.082-33.687-3.898-36.138-17.373-1.212-6.603 1.88-12.451 4.859-18.114 1.71-3.244 3.334-6.332 4.16-9.505 1.74-6.531-.412-13.888-5.186-19.025h6.982a25.04 25.04 0 0 1 3.691 20.248c-.983 3.714-2.807 7.186-4.574 10.544-2.722 5.151-5.273 10.018-4.375 14.998 1.881 10.273 16.943 13.973 30.153 13.062 1.382-.1 2.793-.213 4.204-.313 12.796-1.01 27.303-2.134 36.993 6.474 8.906 7.898 8.735 19.252 8.564 30.223-.114 8.096-.242 16.449 3.32 23.15 5.116 9.577 17.257 15.525 37.107 18.157 1.682.228 3.392.441 5.102.655 14.307 1.778 29.084 3.614 40.07 12.507 10.303 8.339 14.365 20.561 18.27 32.386.669 2.02 1.339 4.012 2.023 5.99A67.4 67.4 0 0 0 237 247.977v8.765zM1 139.789c6.477 7.806 20.212 10.69 32.526 9.842 1.392-.099 2.812-.212 4.247-.325 12.115-.948 24.657-1.923 32.483 5.006 7.13 6.307 6.974 16.007 6.818 26.274-.128 8.64-.256 17.577 3.892 25.34 5.98 11.172 19.458 18.002 41.218 20.873 1.705.226 3.423.438 5.142.65 13.422 1.669 27.299 3.394 36.986 11.2 9.061 7.31 12.868 18.75 16.547 29.823a332.885 332.885 0 0 0 2.03 6.024 89.951 89.951 0 0 0 2.032 5.246H191a79.634 79.634 0 0 1-2.755-6.816 486.541 486.541 0 0 1-2.017-5.953c-3.892-11.751-7.94-23.898-18.21-32.185-10.95-8.838-25.68-10.662-39.94-12.43-1.704-.212-3.408-.424-5.084-.65-19.786-2.616-31.887-8.527-36.986-18.044-3.551-6.66-3.423-14.961-3.31-23.007.17-10.903.341-22.188-8.536-30.036-9.658-8.555-24.117-7.438-36.872-6.434-1.406.099-2.812.212-4.19.311-13.167.905-28.18-2.772-30.055-12.981-.894-4.95 1.648-9.786 4.36-14.905 1.762-3.337 3.58-6.788 4.56-10.478C14.635 96.037 10.133 84.85 1 78.742v6.93c4.985 5.119 7.258 12.6 5.497 19.245-.824 3.154-2.443 6.222-4.148 9.447-.454.862-.909 1.71-1.349 2.587v22.838zM105 280.742h-5.878c-.311-.923-.609-1.86-.92-2.798-3.669-11.123-7.464-22.615-16.5-29.96-9.66-7.841-23.497-9.574-36.881-11.25a560.142 560.142 0 0 1-5.127-.654C20.545 233.537 7.812 227.883 1 218.877v-14.135a26.866 26.866 0 0 0 2.62 8.098c5.085 9.56 17.152 15.498 36.881 18.126 1.671.227 3.37.44 5.07.653 14.22 1.776 28.907 3.609 39.827 12.487 10.24 8.325 14.277 20.527 18.157 32.332.482 1.45.95 2.884 1.445 4.304z"
            fill="#FE5043" fill-rule="nonzero"></path>
        <path fill="#3F3D56" fill-rule="nonzero" d="M452 44.742h235v236H452z"></path>
        <path fill="#FE5043" fill-rule="nonzero"
            d="M566.306 44.742v97.278H451v5.722h121v-103zM677.21 279.742L687 265.82v-9.903l-16.758 23.825h6.968zm-39.757-102L585 252.34l38.973 27.402h9.904l-40.94-28.784 45.899-65.278L687 219.55v-6.968l-49.547-34.84zM550.5 169.742l-29.5 29.5 29.5 29.5 29.5-29.5-29.5-29.5zm-21.642 29.5l21.642-21.641 21.642 21.641-21.642 21.642-21.642-21.642z">
        </path>
        <circle fill="#FFB8B8" fill-rule="nonzero" cx="329" cy="130.742" r="20"></circle>
        <path
            d="M318 140.09s5.484 27.468 3.29 32.75c-2.193 5.282 30.71-2.113 30.71-2.113s-6.58-27.467-5.484-33.806c1.097-6.338-28.516 3.17-28.516 3.17zM283 235.742l2.1 28.667 10.422 45.02 3.228 12.313 5.25-19.11-5.25-43.532-1.783-19.598zM395 231.742v29.816s-3.176 38.334-9.53 47.917c-6.352 9.584-8.47-38.334-8.47-38.334l4.978-35.14L395 231.743z"
            fill="#9D5F68" fill-rule="nonzero"></path>
        <path
            d="M298.726 326.341s-5.343 6.398-1.069 71.443c4.274 65.046-2.137 111.964 11.753 111.964 0 0-4.274 13.862 7.48 14.928 11.753 1.066 17.095 2.133 18.163-1.066 1.069-3.2 3.206-18.128 0-18.128 0 0 0 4.266 2.137-12.795s2.137-98.101 7.48-108.765l17.095 39.454s0 18.127 3.205 26.658c3.206 8.53 8.548 57.581 8.548 57.581l-1.068 7.464s25.643 4.266 26.711 0c1.069-4.265 1.069-10.663 0-12.796-1.068-2.132-1.068-2.132 1.069-6.397 2.137-4.266 2.137-7.465 1.068-10.664-1.068-3.199-1.068-72.51-1.068-72.51s-2.137-84.238-14.959-88.503c-12.821-4.266-86.545 2.132-86.545 2.132z"
            fill="#2F2E41" fill-rule="nonzero"></path>
        <path
            d="M314.181 515.742l-8.371 14.937s-13.08-4.801-10.464 7.468c22.497 1.6 38.193-.533 38.193-.533s5.232 2.134 6.279-1.067c1.046-3.2-2.616-14.403-5.756-14.403-3.139 0-19.881-6.402-19.881-6.402zM376.071 510.78s-8.561 19.542-5.35 20.628c3.21 1.086 32.106 5.428 34.246 6.514 2.14 1.085 12.842 2.171 13.913-4.343 1.07-6.514-5.351-8.685-5.351-8.685s-11.773-2.171-14.983-13.028c-3.21-10.856-22.475-1.086-22.475-1.086z"
            fill="#2F2E41" fill-rule="nonzero"></path>
        <path
            d="M352.48 168.116s-28.89-5.34-35.31 0c-6.42 5.34-33.17 16.021-33.17 21.361s13.91 57.677 13.91 57.677-7.49 79.037 0 81.174c7.49 2.136 20.33-4.273 35.31 3.204 14.98 7.476 57.78-6.409 57.78-6.409s-16.05-68.357-11.77-81.174c4.28-12.817 7.49-56.608 7.49-56.608s-18.19-19.225-34.24-19.225z"
            fill="#8985A8" fill-rule="nonzero"></path>
        <path
            d="M292.599 186.742l-7.877 2.14s-16.88 50.299-10.128 52.44c6.752 2.14 25.882 6.42 28.132 6.42 2.251 0-10.127-61-10.127-61zM370 181.742l17.089 6.3s22.43 40.95 17.089 46.2c-5.34 5.25-28.838 10.5-28.838 10.5l-5.34-63z"
            fill="#8985A8" fill-rule="nonzero"></path>
        <path
            d="M328.036 105.926a11.381 11.381 0 0 0-5.057.225 13.183 13.183 0 0 0-3.595 2.367 42.055 42.055 0 0 1-6.145 4.09c-1.725.94-3.578 1.81-4.782 3.366-.569.786-1.023 1.65-1.35 2.565a30.865 30.865 0 0 0-1.61 16.732c.116.798.355 1.573.71 2.297 1.106 2.047 3.549 2.853 5.606 3.926 3.907 2.037 6.869 5.466 10.073 8.497a19.702 19.702 0 0 0 3.98 3.08c4.572 2.503 10.16 1.687 15.291.802a2.75 2.75 0 0 0 1.954-.822 2.774 2.774 0 0 0 .796-1.972l4.05-18.296a29.97 29.97 0 0 0 1.04-8.322c-.284-4.44-2.678-10.593-5.924-13.748-3.781-3.676-10.093-4.261-15.037-4.787z"
            fill="#2F2E41" fill-rule="nonzero"></path>
        <circle fill="#FE5043" fill-rule="nonzero" cx="190.5" cy="514.242" r="8.5"></circle>
        <path
            d="M190.5 537.742c-13.531 0-24.5-10.969-24.5-24.5 0-13.53 10.969-24.5 24.5-24.5s24.5 10.97 24.5 24.5c-.015 13.525-10.975 24.485-24.5 24.5zm0-47.115a22.615 22.615 0 1 0 22.615 22.615c-.014-12.484-10.13-22.6-22.615-22.615z"
            fill="#2F2E41" fill-rule="nonzero"></path>
        <circle fill="#FE5043" fill-rule="nonzero" cx="601.5" cy="515.242" r="8.5"></circle>
        <path
            d="M600.5 538.742a24.5 24.5 0 1 1 24.5-24.5c-.015 13.525-10.975 24.485-24.5 24.5zm0-47.114c-12.49 0-22.615 10.125-22.615 22.615 0 12.49 10.125 22.615 22.615 22.615 12.49 0 22.615-10.125 22.615-22.615-.014-12.484-10.13-22.6-22.615-22.615z"
            fill="#2F2E41" fill-rule="nonzero"></path>
        <circle fill="#FE5043" fill-rule="nonzero" cx="601.5" cy="469.242" r="8.5"></circle>
        <path
            d="M600.5 492.742a24.5 24.5 0 1 1 24.5-24.5c-.015 13.525-10.975 24.485-24.5 24.5zm0-47.114c-12.49 0-22.615 10.125-22.615 22.615 0 12.49 10.125 22.615 22.615 22.615 12.49 0 22.615-10.125 22.615-22.615-.014-12.484-10.13-22.6-22.615-22.615z"
            fill="#2F2E41" fill-rule="nonzero"></path>
        <g filter="url(#prefix__a)" transform="translate(1)">
            <path fill="#FE5043" d="M0 0h235v45H0z"></path><text font-family="Roboto-Regular, Roboto"
                font-size="22" letter-spacing="0.329" fill="#FFF">
                <tspan x="28" y="30">Non-profile Flow</tspan>
            </text>
        </g>
        <g filter="url(#prefix__b)" transform="translate(452)">
            <path fill="#FE5043" d="M0 0h235v45H0z"></path><text font-family="Roboto-Regular, Roboto"
                font-size="22" letter-spacing="0.329" fill="#FFF">
                <tspan x="15" y="30">Small Business Flow</tspan>
            </text>
        </g>
    </g>
</svg>